<!-- Generator: Adobe Illustrator 19.2.0, SVG Export Plug-In  -->
<svg version="1.1"
	 xmlns="http://www.w3.org/2000/svg" xmlns:xlink="http://www.w3.org/1999/xlink" xmlns:a="http://ns.adobe.com/AdobeSVGViewerExtensions/3.0/"
	 x="0px" y="0px" width="488.761px" height="243.425px" viewBox="0 0 488.761 243.425"
	 style="enable-background:new 0 0 488.761 243.425;" xml:space="preserve">
<style type="text/css">
	.st0{fill:#294469;}
</style>
<defs>
</defs>
<g id="Z48vt0.tif_2_">
	<g>
		<path class="st0" d="M243.354,121.241c1.631-0.073,2.53-0.149,3.43-0.149c18.212-0.007,36.423,0.029,54.635-0.048
			c2.353-0.01,3.186,0.513,3.376,3.111c2.179,29.702,23.777,53.083,53.13,57.736c25.897,4.106,53.563-11.22,64.453-35.594
			c3.27-7.32,5.246-14.9,5.342-22.916c0.022-1.849,0.726-2.316,2.418-2.313c18.758,0.035,37.516,0.055,56.274-0.018
			c2.34-0.009,2.385,1.184,2.341,2.914c-0.63,24.587-7.792,47.097-22.075,67.11c-18.886,26.464-44.322,43.651-76.24,49.793
			c-41.816,8.047-78.587-3.153-109.48-32.448c-19.348-18.346-30.912-41.124-35.485-67.36
			C244.355,134.654,244.064,128.106,243.354,121.241z"/>
		<path class="st0" d="M243.391,0c0,0.299,0,1.17,0,2.041c0,26.772-0.013,53.544,0.03,80.315c0.003,1.747-0.432,3.014-1.715,4.294
			C189.872,138.345,138.083,190.086,86.24,241.772c-0.857,0.855-2.307,1.58-3.482,1.583c-27.318,0.088-54.636,0.069-81.954,0.065
			c-0.436,0-0.872-0.055-0.795-0.05C81.068,162.315,162.3,81.087,243.391,0z"/>
	</g>
</g>
</svg>